<svg id="a1c3bae1-f334-4255-b3b1-65425c2aef8e" data-name="Layer 1" xmlns="http://www.w3.org/2000/svg" viewBox="0 0 870.24 980"><path d="M39.37,2.77c-11.67,4.15-21,10.68-27.49,19.58C-.78,39.56,0,6.92,0,491.68,0,931.74,0,933.32,4,944.2c4.75,12.26,15.82,24.72,28.09,31.25L40.6,980H776.29l7.91-4.35c9.92-5.14,23.34-19.58,27.92-29.65,3-6.13,3.76-15,4.35-48.65l.79-40.94H771.35V893c0,34-.2,36.79-4,40.54-4,4-6.53,4-358.77,4-346.31,0-354.82,0-359.37-3.76L44.5,930V51l4.75-3.76c4.55-3.56,11.27-3.76,250.59-3.76H545.68l.59,89.4c.59,88.41.59,89.79,5.14,98.69a66,66,0,0,0,31.64,31.84L596.3,270l87.42.59,87.62.59V439.07h45.49V240.3L696.59,120.05,576.54,0h-265C100.12.2,45.12.59,39.37,2.77Z" transform="translate(0)"/><path d="M227.46,513.44c-1.58.2-8.9,1.19-16.22,1.78l-13.45,1.38V781.22h59.33V686.28h22.35c40.94,0,69-10.09,89-31.65,14-15,19.38-28.48,20.57-52.61,2.17-36.39-13.45-64.48-43.91-78.72-17.6-8.5-36.79-11.08-77.53-10.88C247.23,512.65,229,513,227.46,513.44ZM302,559.91c16,4.16,28.28,20.17,28.28,37.38,0,15.62-10.48,31.45-25.12,38-9.69,4.35-30.46,6.72-40.94,4.75l-7.12-1.41V599.27c0-35.8.4-39.36,3.56-40.15,6.92-1.78,32.64-1.38,41.34.79Z" transform="translate(0)"/><path d="M461.83,513.24c-1,.4-8.9,1.19-17.21,2l-15.43,1.38v264l9.49,1.19c5.14.79,22.15,1.78,38,2.57,104.43,4.75,164-27.49,184.33-99.48,5.73-20.37,6.33-62.1,1-81.49-12.07-44.11-41.93-72.78-89.4-85.44-13.65-3.76-22.35-4.35-62.3-4.94C484.77,512.65,463,512.65,461.83,513.24Zm78.71,47.47c17.4,3.56,31.25,11.27,41.93,23.34,12.66,13.84,17.21,27.49,18.2,53.8,1.58,36-6.13,59.14-25.51,77.33q-24,22.5-67.25,22.55c-19.18,0-17.4,9.1-17.4-90V559.92l6.53-.79c14.23-1.79,30.84-1.19,43.5,1.58Z" transform="translate(0)"/><path d="M706.12,647.73v133.5h61.32V674.43l48.06-.4,47.86-.59.59-24.33.59-24.13H767.39V563.66H870.24V514.22H706.12Z" transform="translate(0)"/><path d="M178,319.77c64.91-1.58,120.27-52.84,120.39-121.65.12-67.33-53.6-122-120-122.12h-.7" transform="translate(0)" fill="#cccbcb"/><path d="M173.7,317.52C106.93,315.93,53.25,262,53.13,195.67,53,128.24,108.26,73.47,176.53,73.36h.72" transform="translate(0)" fill="#6d7273"/><path d="M177.39,203.16V324.09h2.38v.09c1,0,2.12-.05,3.2-.09h.34v0c31.44-1.51,74.88-17.59,101.69-61.54,25.64-42.1,22.48-91.24,4.3-125.29,4,35.06-3.9,66.83-25.21,94.75-20.58,26.93-47.81,43-80.78,48.88V204.52L220.18,213l.07-.33.21.17,8.19-10.08h0l.27-.35,14.23-17.52-.07-.06,1.86-2.31a8.42,8.42,0,0,0,4.54,1.15c3.6,0,7.73-1.59,9.9-4.28l1-1.25a12.68,12.68,0,0,0-1.78-16.82c-3.36-2.72-6.3-3.72-9.85-3.34s-6.26,1.71-8.08,4-3.91,5.37-3.57,9.15c.25,2.57.7,5.17,2.35,6.95l-.18.23-.11,0,.05,0L223.4,198l-5.8,7.15-30.8-7.09L211,185.32l-.17-.31.36,0L213,144.69l30-9.26-.1-.31.33.08L254,90.84l-.18,0,1.94-8.32c4.43.49,10.43-4.15,11.58-9.12l.36-1.56A11.67,11.67,0,0,0,266.06,63a11.94,11.94,0,0,0-7.23-5.53h0c-4.23-1-7.32-.61-10.33,1.27A11.47,11.47,0,0,0,243,65.81c-.66,2.85-1.17,6.55.77,9.79,1.31,2.21,2.85,4.36,5.12,5.25l-5.91,25.32h0l-5.73,23.64-9.41,2.9L214.12,112.8c3.31-2.88,4-10.61,1.11-14.73l-.92-1.31a12.67,12.67,0,0,0-16.59-3.07h0c-3.63,2.51-5.36,5-6,8.5a11.55,11.55,0,0,0,1.5,8.87c2.46,3.57,4.86,5.43,7.77,6a19.86,19.86,0,0,0,3.87.47,7.73,7.73,0,0,0,3.44-.72l.19.28v0h0l12.23,17.75-14.37,4.44.12.37-.35,0-1.88,41.18-21,11V71.65h-5.92V195m69.37-28.36a5.72,5.72,0,0,1,5.53-.55,4.81,4.81,0,0,1,2.87,4.09,5.25,5.25,0,0,1-2.72,5.07,5.42,5.42,0,0,1-5.7-.45,11.17,11.17,0,0,1-1.33-1.65,5.57,5.57,0,0,1-.51-1.86A4.85,4.85,0,0,1,246.76,166.66Zm5.6-101.28a5.64,5.64,0,0,1,2.95-.87A4.84,4.84,0,0,1,259.52,67a5.15,5.15,0,0,1-.21,5.75h0A5.48,5.48,0,0,1,254,74.78a9.17,9.17,0,0,1-1.89-.92,5,5,0,0,1-1.3-1.45A4.83,4.83,0,0,1,252.36,65.38ZM207.29,109a10.73,10.73,0,0,1-2,.78,4.9,4.9,0,0,1-1.94,0,4.81,4.81,0,0,1-4.12-5.89,5.07,5.07,0,0,1,4.94-4.36,5.46,5.46,0,0,1,1,.1,5.29,5.29,0,0,1,4.11,4A5.49,5.49,0,0,1,207.29,109Z" transform="translate(0)" fill="#0086b5"/><path d="M170.72,71.85V72A127.61,127.61,0,0,0,69.83,133.53c-25.64,42.1-22.48,91.24-4.3,125.29-4-35.09,3.9-66.83,25.24-94.75,20.41-26.74,47.35-42.7,80-48.76v76.9L133,183.11l-.09.37-.25-.2-8.07,9.93h0l-.3.38-14,17.23,0,.05-1.84,2.28c-3.71-2.33-11-.79-14.2,3.12l-1,1.24a12.54,12.54,0,0,0,1.75,16.58h0c2.87,2.32,5.43,3.37,8.33,3.37a13.07,13.07,0,0,0,1.38-.08c3.57-.4,6.17-1.69,8-3.92s3.86-5.29,3.52-9c-.24-2.51-.69-5.05-2.28-6.81l.23-.28h0l15.55-19.28,5.73-7.06,29.63,7.16-23.1,12.22.2.38-.41,0L140,250.45l-29.52,9.12.11.35-.36-.09L99.66,303.56l.17,0-1.91,8.2c-4.36-.45-10.26,4.11-11.39,9l-.36,1.54a12.38,12.38,0,0,0,8.72,14.14A18.22,18.22,0,0,0,99,337a11.09,11.09,0,0,0,6.12-1.78,11.38,11.38,0,0,0,5.47-7c.64-2.82,1.14-6.46-.76-9.66-1.29-2.16-2.78-4.25-5-5.14l5.82-25h0l5.64-23.27,9.21-2.84L139,282c-3.23,2.88-3.86,10.45-1.06,14.5l.91,1.28a11.65,11.65,0,0,0,7.56,4.63,13.18,13.18,0,0,0,2.48.24,11.21,11.21,0,0,0,6.32-1.84h0c3.57-2.47,5.28-4.9,5.9-8.37a11.39,11.39,0,0,0-1.48-8.75c-2.42-3.53-4.79-5.35-7.66-5.93-2.47-.5-5-.81-7.16.21l-12.22-17.75,14.09-4.35-.13-.41.4,0,1.85-40.6,22-11.62V324.28h6.83V71.85Zm-63.91,157a5.64,5.64,0,0,1-5.44.54,4.77,4.77,0,0,1-2.84-4,5.21,5.21,0,0,1,2.69-5h0a5.39,5.39,0,0,1,5.62.45,11.48,11.48,0,0,1,1.3,1.63,5.17,5.17,0,0,1,.5,1.83A4.79,4.79,0,0,1,106.81,228.84Zm-5.55,99.83a4.94,4.94,0,0,1-7.05-1.55,5.19,5.19,0,0,1,.21-5.67,5.41,5.41,0,0,1,5.27-2.05,9.16,9.16,0,0,1,1.86.91,4.94,4.94,0,0,1,1.28,1.43A4.76,4.76,0,0,1,101.26,328.67Zm44.46-43a10.42,10.42,0,0,1,1.95-.77,4.22,4.22,0,0,1,.82-.08,6.3,6.3,0,0,1,1.1.11,4.76,4.76,0,0,1,4.06,5.81,5,5,0,0,1-5.9,4.2,5.21,5.21,0,0,1-4-4h0A5.38,5.38,0,0,1,145.72,285.71Z" transform="translate(0)" fill="#e9592d"/></svg>