<?xml version="1.0" encoding="utf-8"?>
<!-- Svg Vector Icons : http://www.onlinewebfonts.com/icon -->
<!DOCTYPE svg PUBLIC "-//W3C//DTD SVG 1.1//EN" "http://www.w3.org/Graphics/SVG/1.1/DTD/svg11.dtd">
<svg version="1.1" xmlns="http://www.w3.org/2000/svg" xmlns:xlink="http://www.w3.org/1999/xlink" x="0px" y="0px" viewBox="0 0 1000 1000" enable-background="new 0 0 1000 1000" xml:space="preserve">
<metadata> Svg Vector Icons : http://www.onlinewebfonts.com/icon </metadata>
<g><g transform="translate(0.000000,511.000000) scale(0.100000,-0.100000)"><path d="M1042.5,4982.3c-116.7-41.5-209.7-106.8-274.9-195.8C641,4614.4,648.9,4940.8,648.9,93.2c0-4400.6,0-4416.4,39.6-4525.2c47.5-122.6,158.2-247.2,280.9-312.5l85-45.5H4733h3678.7l79.1,43.5c98.9,51.4,233.4,195.8,278.9,296.7c29.7,61.3,37.6,150.3,43.5,486.5l7.9,409.4h-229.4h-229.4v-365.9c0-340.2-2-367.9-39.6-405.4c-39.6-39.6-65.3-39.6-3587.7-39.6c-3463.1,0-3548.2,0-3593.7,37.6l-47.5,37.6V105.1v4394.7l47.5,37.6c45.5,35.6,112.7,37.6,2505.9,37.6h2458.4l5.9-894c5.9-884.1,5.9-897.9,51.4-986.9c71.2-146.4,172.1-247.2,316.4-318.4l132.5-65.3l874.2-5.9l876.2-5.9v-840.6V619.3h227.4h227.5v994.8V2607L7614.7,3809.5L6414.2,5010H3763.9C1649.7,5008,1099.8,5004.1,1042.5,4982.3z"/><path d="M2923.4-124.4c-15.8-2-89-11.9-162.2-17.8L2626.7-156v-1323.1v-1323.1h296.7H3220v474.7v474.7h223.5c409.4,0,690.3,100.9,890,316.5c140.4,150.3,193.8,284.8,205.7,526.1c21.7,363.9-134.5,644.8-439.1,787.2c-176,85-367.9,110.8-775.3,108.8C3121.1-116.5,2939.2-120.4,2923.4-124.4z M3669-589.1c160.2-41.6,282.8-201.7,282.8-373.8c0-156.2-104.8-314.5-251.2-379.7c-96.9-43.5-304.6-67.2-409.4-47.5l-71.2,13.8v393.6c0,358,4,393.6,35.6,401.5C3324.8-563.4,3582-567.4,3669-589.1z"/><path d="M5267.1-122.4c-9.9-4-89-11.9-172.1-19.8L4940.7-156v-1321.2v-1319.2l94.9-11.9c51.4-7.9,221.5-17.8,379.7-25.7c1044.3-47.5,1639.6,274.9,1843.3,994.8c57.3,203.7,63.3,621,9.9,814.9c-120.7,441.1-419.3,727.8-894,854.4c-136.5,37.6-223.5,43.5-623,49.4C5496.5-116.5,5278.9-116.5,5267.1-122.4z M6054.2-597.1c174-35.6,312.5-112.7,419.3-233.4c126.6-138.4,172.1-274.9,182-538c15.8-360-61.3-591.4-255.1-773.3c-160.2-150.3-383.7-225.5-672.5-225.5c-191.8,0-174-91-174,899.9v878.2l65.3,7.9C5761.5-563.4,5927.6-569.4,6054.2-597.1z"/><path d="M7709.6-1467.3v-1335h306.6h306.6v534v534l480.6,4l478.6,5.9l5.9,243.3l5.9,241.3h-486.5h-484.6v306.6v306.6H8837h514.2v247.2v247.2h-820.8h-820.8V-1467.3z"/></g></g>
</svg>